<svg xmlns="http://www.w3.org/2000/svg" width="24" height="24" viewBox="0 0 24 24"><path fill="currentColor" d="m11.646.096-9.78 5.646c-.207.137-.338.295-.354.614v11.293a.7.7 0 0 0 .354.613l9.78 5.647a.74.74 0 0 0 .708 0l9.78-5.647a.71.71 0 0 0 .355-.613V6.356c-.018-.32-.15-.478-.355-.614L12.354.096a.7.7 0 0 0-.708 0m-.354 1.84v3.711H4.863Zm1.416 0 6.429 3.711h-6.429ZM3.447 7.064h7.326L7.11 13.409Zm9.78 0h7.326l-3.663 6.345ZM12 7.772l3.663 6.345H8.337ZM2.928 9l3.214 5.567-3.214 1.856Zm18.144 0v7.423l-3.214-1.856ZM8.337 15.534h7.326L12 21.879Zm-1.486.259 3.214 5.567-6.429-3.711Zm10.298 0 3.215 1.856-6.429 3.711Z"/></svg>