<svg xmlns="http://www.w3.org/2000/svg" width="32" height="32" viewBox="0 0 24 24"><path fill="currentColor" d="M21.93 3.667c-.122.004-.215.093-.32.145L12 9.33Q7.088 6.509 2.17 3.688c-.103-.05-.22-.003-.308.058L.102 4.758c-.096.068-.108.196-.1.304l.001 2.013c.014.115.117.188.215.234l11.68 6.706c.103.05.223.004.31-.059l8.465-4.861v11.034c.019.123.15.213.272.201.081-.013.143-.073.216-.108q1.37-.786 2.74-1.576c.092-.068.106-.192.097-.297V4.933c-.01-.115-.11-.194-.21-.238q-.88-.508-1.764-1.012a.2.2 0 0 0-.093-.016M.234 9.467a.3.3 0 0 0-.196.11c-.057.085-.029.19-.035.287Q0 14.169 0 18.474c.009.117.11.195.21.24q1.399.805 2.799 1.607c.116.041.255-.027.306-.135.029-.079.008-.164.014-.245v-5.256q1.854 1.066 3.709 2.128c.107.046.224-.008.313-.069l2.49-1.43a.254.254 0 0 0 .031-.336c-.056-.062-.14-.087-.207-.133L.327 9.483a.2.2 0 0 0-.094-.016"/></svg>