<svg xmlns="http://www.w3.org/2000/svg" width="32" height="32" viewBox="0 0 24 24"><path fill="currentColor" d="M6.951 6.951a8.56 8.56 0 0 1 2.36-4.433c3.359-3.359 8.806-3.357 12.167.004 3.36 3.36 3.363 8.808.004 12.167a8.56 8.56 0 0 1-4.433 2.36 8.56 8.56 0 0 1-2.36 4.433c-3.359 3.359-8.806 3.357-12.167-.004-3.36-3.36-3.363-8.808-.004-12.167a8.56 8.56 0 0 1 4.433-2.36m1.538-.157a8.58 8.58 0 0 1 6.196 2.521 8.58 8.58 0 0 1 2.521 6.196 7.138 7.138 0 0 0 3.236-11.954A7.139 7.139 0 0 0 8.49 6.795M6.794 8.489a7.139 7.139 0 0 0-3.236 11.954 7.139 7.139 0 0 0 11.953-3.237 8.58 8.58 0 0 1-6.196-2.521 8.58 8.58 0 0 1-2.521-6.196m1.472-.223a7.13 7.13 0 0 0 2.085 5.383 7.13 7.13 0 0 0 5.383 2.085 7.13 7.13 0 0 0-2.085-5.383 7.13 7.13 0 0 0-5.383-2.085"/></svg>