<svg xmlns="http://www.w3.org/2000/svg" width="32" height="32" viewBox="0 0 24 24"><path fill="currentColor" d="M6.703 8.467c-1.937 0-3.867-.661-5.809-1.978a.9.9 0 0 1-.242-1.244A.895.895 0 0 1 1.898 5c3.257 2.208 6.354 2.208 9.599 0 3.524-2.396 7.976-2.397 11.6-.006a.9.9 0 0 1 .258 1.241.895.895 0 0 1-1.244.26c-3.016-1.99-6.69-1.99-9.608-.006-1.936 1.316-3.863 1.978-5.8 1.978m16.393 2.692a.9.9 0 0 1 .259 1.242.896.896 0 0 1-1.244.26c-3.017-1.99-6.691-1.991-9.608-.007-1.936 1.317-3.863 1.978-5.8 1.979-1.937 0-3.866-.662-5.809-1.978a.9.9 0 0 1-.243-1.244.894.894 0 0 1 1.247-.246c3.257 2.208 6.354 2.208 9.599.001 3.524-2.396 7.975-2.397 11.6-.007m0 6.165a.9.9 0 0 1 .259 1.242.896.896 0 0 1-1.244.26c-3.016-1.99-6.69-1.99-9.608-.006-1.936 1.316-3.863 1.978-5.8 1.978s-3.867-.661-5.81-1.978a.9.9 0 0 1-.242-1.244.895.895 0 0 1 1.246-.245c3.258 2.208 6.354 2.208 9.599 0 3.524-2.396 7.975-2.397 11.6-.007"/></svg>