<svg xmlns="http://www.w3.org/2000/svg" width="32" height="32" viewBox="0 0 24 24"><path fill="currentColor" d="M12 22.486c5.791 0 10.486-4.695 10.486-10.486S17.79 1.514 12 1.514 1.514 6.21 1.514 12 6.21 22.486 12 22.486M12 24C5.373 24 0 18.627 0 12S5.373 0 12 0s12 5.373 12 12-5.373 12-12 12m.038-5.3a6.662 6.662 0 1 0 0-13.325 6.662 6.662 0 0 0 0 13.325m0 1.515a8.177 8.177 0 1 1 0-16.354 8.177 8.177 0 0 1 0 16.354m0-5.452a2.726 2.726 0 1 0 0-5.45 2.726 2.726 0 0 0 0 5.45m0 1.515a4.24 4.24 0 1 1 0-8.48 4.24 4.24 0 0 1 0 8.48"/></svg>