<svg xmlns="http://www.w3.org/2000/svg" width="32" height="32" viewBox="0 0 24 24"><path fill="currentColor" d="M11.988 0c-.251 0-.5.02-.744.05a11.97 11.97 0 0 0-9.181 5.267l-.006.006c-.112.166-.237.321-.34.492q-.058.091-.111.185-.197.342-.346.697A11.9 11.9 0 0 0 0 12c0 2.143.567 4.152 1.553 5.895.018.033.033.066.053.1.06.105.13.203.196.304C3.918 21.715 7.69 24 12 24c4.4 0 8.242-2.381 10.33-5.918l.056-.088.017-.035a11.92 11.92 0 0 0 .027-11.874L22.386 6c-.044-.076-.094-.146-.14-.22A11.98 11.98 0 0 0 12.623.032 6 6 0 0 0 12 0zm0 .896H12a5.3 5.3 0 0 1 4.193 2.051 6.2 6.2 0 0 0-2.292.78 6.2 6.2 0 0 0-1.904 1.71 6.2 6.2 0 0 0-1.907-1.71 6.2 6.2 0 0 0-2.291-.78 5.3 5.3 0 0 1 4.19-2.05m4.35.88c.837.354 1.62.811 2.336 1.35a6.3 6.3 0 0 0-1.427-.226 6.3 6.3 0 0 0-.908-1.125m-8.692.005a6.3 6.3 0 0 0-.902 1.12q-.722.03-1.415.222a11 11 0 0 1 2.317-1.342M7.26 3.797a5.3 5.3 0 0 1 2.379.706 5.3 5.3 0 0 1 1.54 1.339 6.2 6.2 0 0 0-4.107 2.373 5.3 5.3 0 0 1-.39-2.004c0-.87.209-1.69.578-2.414m9.471 0c.37.724.578 1.544.578 2.414 0 .71-.138 1.385-.39 2.004a6.2 6.2 0 0 0-4.107-2.373c.41-.526.927-.985 1.54-1.34a5.3 5.3 0 0 1 2.38-.705m-10.473.04a6.2 6.2 0 0 0-.472 2.374c0 .892.188 1.738.527 2.505a6.2 6.2 0 0 0-2.434.797 6.2 6.2 0 0 0-1.82 1.593 5.3 5.3 0 0 1 .326-4.658 5.3 5.3 0 0 1 3.873-2.61m11.475 0a5.3 5.3 0 0 1 3.873 2.611 5.3 5.3 0 0 1 .326 4.658 6.2 6.2 0 0 0-1.82-1.593 6.2 6.2 0 0 0-2.434-.797 6.2 6.2 0 0 0 .527-2.505c0-.84-.168-1.642-.472-2.373m-6.462 2.895a6.25 6.25 0 0 0-.402 3.314 6.24 6.24 0 0 0-3.07-1.31 5.3 5.3 0 0 1 3.472-2.004m1.45 0a5.3 5.3 0 0 1 3.472 2.004 6.24 6.24 0 0 0-3.07 1.31 6.24 6.24 0 0 0-.402-3.314m-.724.601a5.3 5.3 0 0 1 0 3.536 5.3 5.3 0 0 1 0-3.536m-5.74 2.291a6.2 6.2 0 0 0 0 4.743 5.32 5.32 0 0 1-3.732-2.37 5.3 5.3 0 0 1 1.802-1.708 5.3 5.3 0 0 1 1.93-.665m11.476 0c.66.092 1.317.31 1.931.665a5.3 5.3 0 0 1 1.802 1.708 5.32 5.32 0 0 1-3.732 2.37 6.18 6.18 0 0 0 0-4.743m-9.776.041a5.3 5.3 0 0 1 3.062 1.767 5.3 5.3 0 0 1-3.062-1.767m8.077 0a5.3 5.3 0 0 1-3.061 1.767 5.3 5.3 0 0 1 3.061-1.767m-8.962.328a6.24 6.24 0 0 0 2.672 2.004 6.24 6.24 0 0 0-2.672 2.004 5.3 5.3 0 0 1-.39-2.004c0-.71.139-1.385.39-2.004m9.847 0c.252.619.39 1.294.39 2.004s-.138 1.386-.39 2.004a6.24 6.24 0 0 0-2.672-2.004 6.24 6.24 0 0 0 2.672-2.004m6.1.65a11.2 11.2 0 0 1 .002 2.708 6.2 6.2 0 0 0-.521-1.354c.226-.43.399-.885.519-1.353m-22.043.018c.12.462.293.912.515 1.336a6.2 6.2 0 0 0-.515 1.336 11.2 11.2 0 0 1 0-2.672m10.043 1.899a5.3 5.3 0 0 1-3.062 1.77 5.3 5.3 0 0 1 3.062-1.77m1.954 0a5.3 5.3 0 0 1 3.061 1.77 5.3 5.3 0 0 1-3.061-1.77m-10.913.328a6.2 6.2 0 0 0 1.819 1.593 6.2 6.2 0 0 0 2.434.794 6.2 6.2 0 0 0-.527 2.508c0 .84.169 1.642.472 2.373a5.3 5.3 0 0 1-3.873-2.61 5.3 5.3 0 0 1-.325-4.658m19.872 0a5.3 5.3 0 0 1-.326 4.658 5.3 5.3 0 0 1-3.873 2.61 6.2 6.2 0 0 0 .472-2.373 6.2 6.2 0 0 0-.527-2.508 6.2 6.2 0 0 0 2.434-.794 6.2 6.2 0 0 0 1.82-1.593m-9.935.237a5.3 5.3 0 0 1 0 3.536 5.3 5.3 0 0 1 0-3.536m-1.128.823a6.23 6.23 0 0 0 .402 3.31 5.3 5.3 0 0 1-3.472-2 6.24 6.24 0 0 0 3.07-1.31m2.253 0a6.24 6.24 0 0 0 3.07 1.31 5.3 5.3 0 0 1-3.471 2 6.23 6.23 0 0 0 .401-3.31m-6.05 1.831a6.2 6.2 0 0 0 4.108 2.373 5.3 5.3 0 0 1-3.92 2.045 5.3 5.3 0 0 1-.577-2.414c0-.71.138-1.385.39-2.004m9.847 0c.252.619.39 1.294.39 2.004 0 .87-.208 1.69-.578 2.414a5.3 5.3 0 0 1-2.378-.706 5.3 5.3 0 0 1-1.541-1.339 6.2 6.2 0 0 0 4.107-2.373M12 18.56a6.2 6.2 0 0 0 4.195 2.49A5.3 5.3 0 0 1 12 23.098c-1.708 0-3.227-.8-4.198-2.048a6.2 6.2 0 0 0 2.29-.78A6.2 6.2 0 0 0 12 18.56m6.691 2.308a11 11 0 0 1-2.36 1.365c.349-.34.657-.722.92-1.136.488-.02.972-.097 1.44-.229m-13.374.003q.7.195 1.43.226.392.62.914 1.13a11 11 0 0 1-2.344-1.356"/></svg>