<svg width="626.493" height="437.441" viewBox="0 0 626.493 437.441" xmlns:xlink="http://www.w3.org/1999/xlink"><defs><linearGradient xlink:href="#a" id="d" gradientUnits="userSpaceOnUse" x1="470.066" y1="-656.684" x2="454.613" y2="-1099.207"/><linearGradient id="a"><stop style="stop-color:#000;stop-opacity:.94931161" offset="0"/><stop style="stop-color:#282828;stop-opacity:.95686275" offset=".13"/><stop style="stop-color:#e6e6e6;stop-opacity:1" offset=".747"/></linearGradient><linearGradient id="c"><stop style="stop-color:#bbb;stop-opacity:1" offset="0"/><stop style="stop-color:#acacac;stop-opacity:1" offset=".07"/><stop style="stop-color:#efefef;stop-opacity:1" offset="1"/></linearGradient><radialGradient xlink:href="#b" id="f" gradientUnits="userSpaceOnUse" gradientTransform="matrix(1 0 0 .69444 0 -268.242)" cx="462.323" cy="-877.864" fx="462.323" fy="-877.864" r="218.37"/><linearGradient id="b"><stop style="stop-color:#fff;stop-opacity:1" offset="0"/><stop style="stop-color:#fff;stop-opacity:0" offset="1"/></linearGradient><linearGradient xlink:href="#c" id="e" gradientUnits="userSpaceOnUse" x1="247.135" y1="-843.781" x2="677.511" y2="-911.946"/></defs><g style="display:inline"><path style="display:inline;fill:url(#d);stroke:none;stroke-width:1;stroke-linecap:round;stroke-linejoin:bevel;stroke-dasharray:none;stroke-opacity:1" d="M645.56-1032.532c-2.267.072-3.987 1.736-5.918 2.701-59.106 34.095-118.19 68.235-177.29 102.345-60.454-34.882-120.9-69.778-181.358-104.652-1.918-.921-4.08-.048-5.707 1.07-10.81 6.277-21.662 12.488-32.465 18.78-1.77 1.258-1.998 3.636-1.836 5.629.003 12.452-.024 24.904.016 37.355.255 2.128 2.158 3.49 3.954 4.332 71.83 41.467 143.65 82.949 215.485 124.406 1.923.91 4.122.077 5.728-1.096l156.184-90.175v204.695c.345 2.283 2.777 3.94 5.02 3.727 1.498-.256 2.638-1.367 3.98-2 16.854-9.746 33.722-19.469 50.559-29.242 1.687-1.268 1.947-3.558 1.781-5.513-.005-82.955.01-165.91-.007-248.865-.17-2.137-2.033-3.603-3.847-4.43-10.853-6.256-21.683-12.555-32.561-18.764a4.2 4.2 0 0 0-1.717-.303zM245.242-924.927c-1.403.132-2.732.94-3.607 2.022-1.063 1.583-.544 3.55-.657 5.326-.003 53.249-.026 106.498-.018 159.746.163 2.148 2.044 3.605 3.86 4.438 17.22 9.932 34.426 19.896 51.657 29.81 2.134.766 4.713-.496 5.642-2.511.537-1.453.144-3.03.266-4.538v-97.508c22.805 13.162 45.597 26.349 68.42 39.479 1.985.86 4.133-.143 5.776-1.276 15.312-8.85 30.644-17.672 45.943-26.541 1.743-1.489 1.95-4.42.575-6.217-1.03-1.152-2.57-1.615-3.82-2.473l-172.3-99.476c-.538-.261-1.148-.312-1.737-.281" transform="translate(-340.902 1460.896)scale(1.41487)"/><path style="display:inline;fill:url(#e);fill-opacity:1;stroke:url(#f);stroke-width:2.12034;stroke-linecap:round;stroke-linejoin:bevel;stroke-dasharray:none" d="M645.557-1028.642 462.35-922.868l-183.267-105.764-34.098 19.688-.008 39.372 217.373 125.5 164.002-94.687v211.617l53.34-30.824v-250.969zM244.978-921.185l-.025 163.252 53.432 30.848v-107.979l74.18 42.828 47.88-27.644z" transform="translate(-340.902 1460.896)scale(1.41487)"/></g></svg>